<!-- Generated by IcoMoon.io -->
<svg version="1.1" xmlns="http://www.w3.org/2000/svg" width="299" height="299" viewBox="0 0 32 32">
<title>lang</title>
<path fill="#fff" d="M4.672 26.938s-1.695-2.977-1.304-3.734c0.391-0.757 1.391 0.605 1.391 0.605s-0.87-2.776-0.391-3.987c0.479-1.212 1.304 0 1.344 0.858s-0.173 2.321-0.173 2.321 0.347-3.028 1.173-2.12c0.826 0.908-1.043 3.937-1.043 3.937s1.261-0.704 1.216 0.202c-0.045 0.906-1.521 1.716-1.521 1.716z"></path>
<path fill="#263238" d="M6.566 25.727h-2.932l0.293 3.459h2.346l0.293-3.459z"></path>
<path fill="#fff" d="M25.472 8.178l-3.318 0.206c-0.384 0.025-0.687 0.343-0.687 0.731 0 0.003 0 0.007 0 0.010v-0.001l0.017 1.333-0.965 0.102 0.972 0.502c0.003 0.203 0.088 0.385 0.223 0.516l0 0c0.067 0.065 0.147 0.118 0.236 0.153l0.005 0.002c0.090 0.035 0.186 0.053 0.282 0.051l3.221-0.059c0.389-0.008 0.703-0.317 0.718-0.703l0-0.001 0.074-2.084c0-0.009 0.001-0.019 0.001-0.029 0-0.404-0.327-0.731-0.731-0.731-0.017 0-0.034 0.001-0.050 0.002l0.002-0z"></path>
<path fill="#8c8c8c" d="M24.8 8.522h-2.173v1.368h2.173v-1.368z"></path>
<path fill="#696969" d="M24.8 8.522h-1.234v1.368h1.234v-1.368z"></path>
<path fill="#fff" d="M24.156 8.522h-0.885v1.368h0.885v-1.368z"></path>
<path fill="#263238" d="M22.611 10.998v-0.348c0-0.167 0.118-0.278 0.297-0.278s0.297 0.109 0.297 0.273c0 0.008-0.006 0.013-0.016 0.014l-0.057 0.004c-0.010 0-0.017 0-0.017-0.008v-0.008c0-0 0-0 0-0 0-0.114-0.093-0.207-0.207-0.207-0 0-0 0-0 0h0c-0 0-0 0-0 0-0.114 0-0.207 0.093-0.207 0.207 0 0 0 0 0 0v0 0.354c-0 0.001-0 0.003-0 0.005 0 0.115 0.093 0.207 0.207 0.207s0.207-0.093 0.207-0.207c0-0.002-0-0.003-0-0.005v0c-0-0-0-0.001-0-0.001 0-0.002 0-0.004 0.001-0.005l-0 0c0.002-0.004 0.005-0.007 0.009-0.008l0-0c0.001-0 0.002-0 0.003-0s0.002 0 0.003 0l-0-0h0.057c0.010 0 0.016 0 0.016 0.006v0.006c0 0.166-0.118 0.276-0.297 0.276s-0.297-0.11-0.297-0.278zM23.375 10.447c-0-0.001-0-0.003-0-0.005 0-0.027 0.016-0.050 0.039-0.061l0-0c0.008-0.004 0.018-0.006 0.028-0.006 0.038 0 0.069 0.031 0.069 0.069 0 0.023-0.011 0.043-0.028 0.056l-0 0c-0.011 0.007-0.024 0.012-0.039 0.012v0c-0.001 0-0.003 0-0.005 0-0.026 0-0.049-0.016-0.058-0.038l-0-0c-0.003-0.007-0.005-0.016-0.005-0.025 0-0 0-0 0-0.001v0zM23.399 11.251v-0.607c-0-0-0-0.001-0-0.001 0-0.002 0-0.004 0.001-0.005l-0 0c0.001-0.002 0.002-0.004 0.003-0.005v0c0.002-0.002 0.003-0.003 0.005-0.004l0-0c0.002-0.001 0.004-0.001 0.006-0.001 0 0 0 0 0.001 0h0.057c0-0 0.001-0 0.001-0 0.007 0 0.012 0.004 0.015 0.010l0 0c0.001 0.002 0.001 0.004 0.001 0.007v0.607c0 0 0 0.001 0 0.001 0 0.004-0.002 0.008-0.004 0.011v0c-0.003 0.003-0.007 0.005-0.011 0.005-0 0-0.001-0-0.001-0h-0.057c-0 0-0 0-0.001 0-0.002 0-0.004-0-0.006-0.001l0 0c-0.002-0.001-0.004-0.002-0.005-0.004v0c-0.001-0.002-0.003-0.003-0.003-0.005l-0-0c-0.001-0.002-0.001-0.003-0.001-0.005 0-0 0-0.001 0-0.001v0zM24.159 10.829v0.421c0 0 0 0.001 0 0.001 0 0.004-0.002 0.008-0.004 0.011v0c-0.003 0.003-0.007 0.005-0.011 0.005-0 0-0 0-0.001-0h-0.057c-0 0-0.001 0-0.001 0-0.002 0-0.004-0-0.005-0.001l0 0c-0.002-0.001-0.004-0.002-0.006-0.004v0c-0.003-0.003-0.005-0.007-0.005-0.011 0-0 0-0.001 0-0.001v0-0.045c0-0.005-0.004-0.008-0.008 0-0.048 0.046-0.114 0.075-0.186 0.075-0.004 0-0.008-0-0.012-0l0.001 0c-0.108 0-0.209-0.052-0.209-0.185s0.096-0.205 0.261-0.205h0.148c0.001 0 0.002 0 0.003-0s0.003-0.002 0.004-0.004v-0c0-0.001 0-0.001 0-0.002s0-0.001-0-0.001v0-0.047c0-0.004 0.001-0.008 0.001-0.012 0-0.071-0.057-0.128-0.128-0.128-0.007 0-0.014 0.001-0.021 0.002l0.001-0c-0.080 0-0.132 0.033-0.146 0.086-0.001 0.008-0.007 0.013-0.015 0.013-0.001 0-0.003-0-0.004-0.001l0 0-0.064-0.008c-0.010 0-0.017-0.005-0.015-0.014 0.017-0.093 0.11-0.156 0.241-0.156 0.155-0.003 0.239 0.085 0.239 0.21zM24.069 11.062v-0.097c0-0 0-0 0-0.001s-0-0.001-0-0.002v0c-0-0.001-0.001-0.002-0.001-0.002v0c-0.001-0.001-0.001-0.001-0.002-0.001h-0c-0-0-0.001-0-0.002-0s-0.001 0-0.001 0h-0.132c-0.11 0-0.185 0.047-0.185 0.128s0.064 0.112 0.139 0.112c0.094 0.001 0.185-0.048 0.185-0.136zM24.342 11.101c-0.012-0.042-0.018-0.090-0.018-0.14 0-0.005 0-0.011 0-0.016l-0 0.001c-0-0.005-0-0.010-0-0.016 0-0.049 0.006-0.097 0.018-0.143l-0.001 0.004c0.037-0.102 0.134-0.174 0.247-0.174s0.21 0.072 0.246 0.172l0.001 0.002c0.013 0.051 0.019 0.103 0.018 0.155 0.002 0.052-0.005 0.105-0.018 0.155-0.036 0.103-0.132 0.176-0.246 0.176-0 0-0 0-0 0h0c-0.114-0-0.21-0.073-0.246-0.174l-0.001-0.002v-0.001zM24.752 11.075c0.008-0.042 0.011-0.085 0.010-0.128 0-0.006 0-0.014 0-0.021 0-0.038-0.004-0.075-0.011-0.11l0.001 0.003c-0.021-0.072-0.086-0.123-0.163-0.123v0c0 0 0 0 0 0-0.077 0-0.142 0.052-0.163 0.122l-0 0.001c-0.007 0.038-0.010 0.083-0.010 0.128s0.004 0.090 0.011 0.133l-0.001-0.005c0.021 0.072 0.086 0.123 0.163 0.123s0.142-0.052 0.163-0.122l0-0.001z"></path>
<path fill="#fff" d="M11.576 9.818l-1.312-0.355 0.296-1.945c0.004-0.028 0.007-0.060 0.007-0.093 0-0.341-0.277-0.618-0.618-0.618-0.018 0-0.035 0.001-0.052 0.002l0.002-0-2.786 0.23c-0.319 0.027-0.567 0.292-0.567 0.615 0 0.018 0.001 0.035 0.002 0.052l-0-0.002 0.205 2.551c0.026 0.311 0.278 0.555 0.59 0.568l0.001 0 2.144 0.084c0.008 0 0.017 0.001 0.026 0.001 0.308 0 0.563-0.226 0.609-0.521l0-0.003 0.056-0.364 1.397-0.202z"></path>
<path fill="#8c8c8c" d="M9.626 7.354h-2.173v1.368h2.173v-1.368z"></path>
<path fill="#fff" d="M9.626 7.685h-2.173v0.706h2.173v-0.706z"></path>
<path fill="#263238" d="M7.958 9.216h0.057c0 0 0.001-0 0.001-0 0.008 0 0.015 0.007 0.015 0.015 0 0.001-0 0.001-0 0.001v-0 0.852c0 0 0 0.001 0 0.001 0 0.008-0.007 0.015-0.015 0.015-0 0-0.001 0-0.001-0h-0.057c-0 0-0.001 0-0.001 0-0.004 0-0.008-0.002-0.011-0.004v0c-0.003-0.003-0.005-0.007-0.005-0.011 0-0 0-0.001 0-0.001v0-0.384c0-0 0-0 0-0.001 0-0.002-0.001-0.003-0.002-0.004v0c-0.001-0.001-0.002-0.002-0.004-0.002-0 0-0 0-0.001 0h-0.401c-0-0-0.001-0-0.001-0-0.002 0-0.003 0.001-0.004 0.002v0c-0.001 0.001-0.002 0.002-0.002 0.004 0 0 0 0.001 0 0.001v-0 0.384c0 0 0 0.001 0 0.001 0 0.004-0.002 0.008-0.005 0.011v0c-0.003 0.003-0.007 0.004-0.011 0.004-0 0-0.001-0-0.001-0h-0.057c-0 0-0.001 0-0.001 0-0.008 0-0.015-0.007-0.015-0.015 0-0.001 0-0.001 0-0.002v0-0.855c-0-0.001-0-0.001-0-0.002 0-0.006 0.004-0.012 0.010-0.014l0-0c0.002-0.001 0.004-0.001 0.006-0.001h0.057c0-0 0.001-0 0.001-0 0.008 0 0.015 0.007 0.015 0.015 0 0.001-0 0.001-0 0.002v-0 0.378c-0 0-0 0-0 0.001 0 0.002 0.002 0.005 0.004 0.005h0c0.001 0 0.001 0 0.002 0s0 0 0.001-0h0.401c0 0 0 0 0.001 0 0.002 0 0.003-0.001 0.004-0.002v0c0.001-0.001 0.002-0.002 0.002-0.004 0-0-0-0.001-0-0.001v0-0.378c0.001-0.008 0.007-0.014 0.015-0.014 0 0 0 0 0.001 0h-0zM8.245 9.934c-0.011-0.042-0.018-0.089-0.018-0.139 0-0.006 0-0.012 0-0.018l-0 0.001c-0.002-0.052 0.004-0.104 0.016-0.154 0.038-0.102 0.134-0.174 0.247-0.174s0.21 0.072 0.247 0.172l0.001 0.002c0.013 0.051 0.019 0.103 0.018 0.155 0.001 0.052-0.005 0.105-0.018 0.156-0.037 0.103-0.133 0.175-0.247 0.175s-0.21-0.072-0.246-0.174l-0.001-0.002v-0.001zM8.655 9.906c0.007-0.033 0.011-0.071 0.011-0.11 0-0.006-0-0.013-0-0.019l0 0.001c0-0.006 0-0.014 0-0.021 0-0.038-0.004-0.075-0.011-0.111l0.001 0.004c-0.020-0.072-0.086-0.124-0.163-0.124s-0.143 0.052-0.163 0.123l-0 0.001c-0.008 0.042-0.012 0.085-0.010 0.128-0 0.006-0 0.014-0 0.021 0 0.038 0.004 0.075 0.011 0.11l-0.001-0.004c0.021 0.072 0.086 0.124 0.163 0.124s0.142-0.052 0.163-0.123l0-0.001zM8.938 10.083v-0.852c-0-0-0-0.001-0-0.001 0-0.008 0.007-0.015 0.015-0.015 0.001 0 0.001 0 0.002 0h0.057c0 0 0-0 0.001-0 0.008 0 0.015 0.007 0.015 0.015 0 0-0 0.001-0 0.001v-0 0.852c0 0 0 0.001 0 0.001 0 0.008-0.007 0.015-0.015 0.015-0 0-0.001 0-0.001-0h-0.057c-0 0-0.001 0-0.001 0-0.008 0-0.015-0.007-0.015-0.015 0-0 0-0.001 0-0.001v0zM9.692 9.664v0.421c0 0 0 0.001 0 0.001 0 0.004-0.002 0.008-0.005 0.011v0c-0.003 0.003-0.007 0.004-0.011 0.004-0 0-0.001-0-0.001-0h-0.057c-0 0-0.001 0-0.001 0-0.008 0-0.015-0.007-0.015-0.015 0-0 0-0.001 0-0.001v0-0.046c0-0.005-0.004-0.008-0.008 0-0.048 0.046-0.113 0.075-0.185 0.075-0.004 0-0.009-0-0.013-0l0.001 0c-0.108 0-0.209-0.052-0.209-0.184s0.096-0.205 0.261-0.205h0.147c0 0 0 0 0.001 0 0.002 0 0.003-0.001 0.004-0.002v0c0.001-0.001 0.002-0.003 0.002-0.004 0-0 0-0-0-0.001v0-0.054c0-0.004 0.001-0.009 0.001-0.013 0-0.071-0.057-0.128-0.128-0.128-0.007 0-0.014 0.001-0.021 0.002l0.001-0c-0.079 0-0.131 0.033-0.145 0.086-0.001 0.004-0.003 0.008-0.007 0.011l-0 0c-0.002 0.001-0.005 0.002-0.008 0.002-0.002 0-0.003-0-0.005-0.001l0 0-0.064-0.007c-0.010 0-0.016-0.005-0.015-0.014 0.016-0.092 0.11-0.155 0.24-0.155 0.156 0.003 0.241 0.090 0.241 0.218zM9.6 9.894v-0.097c0-0 0-0 0-0.001 0-0.002-0.001-0.003-0.002-0.004v0c-0.001-0.001-0.002-0.002-0.004-0.002-0 0-0.001 0-0.001 0h-0.132c-0.11 0-0.185 0.047-0.185 0.128s0.064 0.113 0.139 0.113c0.095 0.001 0.184-0.047 0.184-0.137z"></path>
<path fill="#fff" d="M26.515 13.163h-1.707c-0.718 0-1.301 0.583-1.301 1.301v0.481l-0.851-0.033 0.853 0.557v0.36c0 0 0 0 0 0 0 0.719 0.582 1.301 1.301 1.302h1.707c0.719-0 1.301-0.583 1.301-1.302v0-1.365c0-0 0-0 0-0 0-0.36-0.146-0.685-0.382-0.92l-0-0c-0.118-0.118-0.258-0.213-0.414-0.279l-0.009-0.003c-0.147-0.062-0.317-0.098-0.496-0.098-0.001 0-0.002 0-0.003 0h0z"></path>
<path fill="#263238" d="M24.989 15.59h0.057c0.002-0 0.004 0 0.006 0.001s0.004 0.002 0.005 0.004v0c0.003 0.003 0.005 0.007 0.005 0.011 0 0 0 0 0 0.001v-0 0.853c0 0 0 0.001 0 0.001 0 0.002-0 0.004-0.001 0.005l0-0c-0.001 0.002-0.002 0.004-0.003 0.005v0c-0.001 0.002-0.003 0.003-0.005 0.004l-0 0c-0.002 0.001-0.004 0.001-0.006 0.001-0 0-0.001 0-0.001-0h-0.057c-0 0-0.001 0-0.001 0-0.002 0-0.004-0-0.005-0.001l0 0c-0.006-0.002-0.010-0.008-0.010-0.014 0-0.001 0-0.001 0-0.002v0-0.384c0-0 0-0 0-0.001s-0-0.001-0-0.002v0c-0-0.001-0.001-0.002-0.001-0.002v0c-0.001-0.001-0.001-0.001-0.002-0.001h-0c-0.001-0-0.001-0-0.002-0s-0 0-0.001 0h-0.401c-0-0-0-0-0.001-0s-0.001 0-0.002 0h0c-0.001 0-0.002 0.001-0.002 0.001v0c-0.001 0.001-0.001 0.001-0.001 0.002v0c-0 0.001-0 0.001-0 0.002s0 0 0 0.001v-0 0.384c0 0 0 0.001 0 0.001 0 0.002-0 0.004-0.001 0.005l0-0c-0.002 0.006-0.008 0.010-0.014 0.010-0 0-0.001-0-0.001-0h-0.057c-0 0-0.001 0-0.001 0-0.004 0-0.008-0.002-0.011-0.004v0c-0.002-0.002-0.003-0.003-0.003-0.006l-0-0c-0.001-0.002-0.001-0.003-0.001-0.005 0-0 0-0.001 0-0.001v0-0.853c0-0 0-0 0-0 0-0.005 0.002-0.009 0.005-0.012v0c0.002-0.001 0.003-0.003 0.005-0.003l0-0c0.002-0.001 0.003-0.001 0.005-0.001 0 0 0.001 0 0.001 0h0.057c0-0 0.001-0 0.001-0 0.002 0 0.004 0 0.005 0.001l-0-0c0.002 0.001 0.004 0.002 0.006 0.003s0.003 0.003 0.004 0.005l0 0c0.001 0.002 0.001 0.004 0.001 0.006 0 0 0 0 0 0.001v-0 0.378c-0 0-0 0-0 0.001s0 0.001 0 0.002v-0c0 0.001 0.001 0.002 0.001 0.002v0c0.001 0.001 0.001 0.001 0.002 0.001s0.001 0 0.002 0 0 0 0.001-0h0.401c0.001 0 0.002 0 0.003-0s0.002-0.001 0.002-0.001v0c0.001-0.001 0.001-0.001 0.001-0.002v-0c0-0.001 0-0.002 0-0.003v-0.378c0-0-0-0-0-0.001 0-0.008 0.007-0.015 0.015-0.015 0 0 0.001 0 0.001 0h-0zM25.689 16.314c0.001-0.004 0.005-0.008 0.009-0.009l0-0c0.002-0.001 0.004-0.001 0.007-0.001s0.004 0.001 0.006 0.002l0.037 0.021c0.009 0.005 0.013 0.013 0.008 0.021-0.041 0.083-0.125 0.139-0.222 0.139-0.004 0-0.009-0-0.013-0l0.001 0c-0.005 0-0.010 0.001-0.016 0.001-0.102 0-0.189-0.066-0.221-0.157l-0-0.002c-0.016-0.046-0.025-0.099-0.025-0.154 0-0.007 0-0.014 0-0.021l-0 0.001c-0-0.008-0.001-0.018-0.001-0.028 0-0.042 0.004-0.083 0.013-0.122l-0.001 0.004c0.027-0.105 0.121-0.181 0.232-0.181 0.004 0 0.008 0 0.013 0l-0.001-0c0.005-0 0.011-0.001 0.017-0.001 0.124 0 0.226 0.096 0.236 0.217l0 0.001c0.007 0.042 0.009 0.085 0.008 0.128 0 0 0 0.001 0 0.001 0 0.004-0.002 0.008-0.005 0.011v0c-0.002 0.001-0.003 0.003-0.005 0.003l-0 0c-0.001 0-0.003 0.001-0.005 0.001s-0.001-0-0.002-0h-0.404c-0-0-0-0-0.001-0s-0.001 0-0.002 0h0c-0.001 0-0.002 0.001-0.002 0.001v0c-0.001 0.001-0.001 0.001-0.001 0.002v0c-0 0.005-0 0.011-0 0.016 0 0.028 0.003 0.055 0.008 0.082l-0-0.003c0.009 0.038 0.032 0.071 0.063 0.093s0.070 0.033 0.109 0.030c0.002 0 0.004 0 0.007 0 0.068 0 0.126-0.039 0.155-0.095l0-0.001zM25.358 16.022c-0.007 0.026-0.010 0.055-0.010 0.085 0 0 0 0.001 0 0.001v-0c-0 0-0 0-0 0.001s0 0.001 0 0.002v-0c0 0.001 0.001 0.002 0.001 0.002v0c0.001 0.001 0.001 0.001 0.002 0.001s0.001 0 0.002 0 0 0 0.001-0h0.325c0 0 0 0 0 0s0.002-0 0.002-0h-0c0.001-0 0.001-0.001 0.002-0.001v0c0-0.001 0.001-0.001 0.001-0.002l0-0c-0-0.030-0.003-0.059-0.007-0.087l0 0.004c-0.016-0.071-0.079-0.124-0.154-0.124-0.003 0-0.006 0-0.009 0l0-0c-0.003-0-0.007-0-0.010-0-0.072 0-0.132 0.050-0.146 0.118l-0 0.001zM25.953 16.459v-0.853c0-0 0-0 0-0 0-0.004 0.002-0.008 0.005-0.011v0c0.002-0.001 0.003-0.003 0.005-0.003l0-0c0.002-0.001 0.003-0.001 0.005-0.001 0 0 0.001 0 0.001 0h0.057c0-0 0.001-0 0.002-0 0.004 0 0.008 0.002 0.010 0.004v0c0.003 0.003 0.004 0.006 0.004 0.010 0 0-0 0.001-0 0.001v-0 0.853c0 0.001 0 0.001 0 0.002s-0 0.003-0.001 0.005l0-0c-0.001 0.002-0.002 0.004-0.003 0.006v0c-0.003 0.003-0.006 0.004-0.011 0.004-0 0-0.001-0-0.002-0h-0.057c-0 0-0.001 0-0.001 0-0.004 0-0.008-0.002-0.011-0.004v0c-0.002-0.002-0.003-0.003-0.003-0.006l-0-0c-0.001-0.001-0.001-0.003-0.001-0.005 0-0.001 0-0.001 0-0.002v0zM26.247 16.459v-0.853c-0-0-0-0.001-0-0.001 0-0.004 0.002-0.008 0.005-0.010v0c0.001-0.001 0.003-0.003 0.005-0.004l0-0c0.002-0.001 0.003-0.001 0.005-0.001 0 0 0.001 0 0.001 0h0.057c0-0 0.001-0 0.001-0 0.002 0 0.004 0 0.005 0.001l-0-0c0.002 0.001 0.004 0.002 0.006 0.003s0.003 0.003 0.004 0.005l0 0c0.001 0.002 0.001 0.004 0.001 0.006 0 0 0 0 0 0.001v-0 0.853c0 0 0 0.001 0 0.001 0 0.007-0.004 0.012-0.010 0.014l-0 0c-0.002 0.001-0.003 0.001-0.005 0.001-0 0-0.001-0-0.001-0h-0.057c-0 0-0.001 0-0.001 0-0.004 0-0.008-0.002-0.011-0.005v0c-0.001-0.002-0.003-0.003-0.003-0.005l-0-0c-0-0.002-0.001-0.003-0.001-0.005 0-0 0-0.001 0-0.001v0zM26.538 16.31c-0.012-0.042-0.018-0.090-0.018-0.14 0-0.006 0-0.011 0-0.017l-0 0.001c-0-0.005-0-0.010-0-0.016 0-0.049 0.006-0.097 0.018-0.143l-0.001 0.004c0.038-0.102 0.134-0.174 0.247-0.174 0.057 0 0.109 0.018 0.152 0.048l-0.001-0.001c0.044 0.031 0.078 0.075 0.096 0.126 0.013 0.051 0.019 0.103 0.017 0.156 0.002 0.052-0.004 0.105-0.017 0.155-0.037 0.103-0.133 0.175-0.247 0.175s-0.21-0.072-0.246-0.174l-0.001-0.002v-0.001zM26.947 16.284c0.008-0.042 0.011-0.085 0.010-0.128 0-0.006 0-0.014 0-0.021 0-0.038-0.004-0.075-0.011-0.11l0.001 0.003c-0.020-0.072-0.085-0.124-0.163-0.124s-0.143 0.052-0.163 0.123l-0 0.001c-0.008 0.042-0.012 0.085-0.010 0.128-0.002 0.043 0.002 0.086 0.010 0.128 0.020 0.072 0.085 0.124 0.163 0.124 0.039 0 0.074-0.013 0.103-0.035l-0 0c0.029-0.022 0.051-0.054 0.061-0.089z"></path>
<path fill="#fff" d="M26.758 13.731h-2.173v1.368h2.173v-1.368z"></path>
<path fill="#263238" d="M26.769 13.731h-2.173v0.133h2.173v-0.133zM26.769 13.938h-2.173v0.133h2.173v-0.133zM26.769 14.145h-2.173v0.133h2.173v-0.133zM26.769 14.352h-2.173v0.132h2.173v-0.132zM26.769 14.559h-2.173v0.133h2.173v-0.133zM26.769 14.767h-2.173v0.132h2.173v-0.132zM26.769 14.974h-2.173v0.133h2.173v-0.133z"></path>
<path fill="#263238" d="M25.639 13.731h-1.053v0.729h1.053v-0.729z"></path>
<path fill="#fff" d="M24.626 13.792l0.010 0.020 0.020 0.003-0.015 0.016 0.003 0.022-0.019-0.010-0.018 0.010 0.003-0.022-0.015-0.016 0.021-0.003 0.009-0.020zM24.626 13.927l0.010 0.020 0.020 0.003-0.015 0.016 0.003 0.022-0.019-0.011-0.018 0.011 0.003-0.022-0.015-0.016 0.021-0.003 0.009-0.020zM24.626 14.062l0.010 0.020 0.020 0.003-0.015 0.016 0.003 0.022-0.019-0.011-0.018 0.011 0.003-0.022-0.015-0.016 0.021-0.003 0.009-0.020zM24.626 14.196l0.010 0.021 0.020 0.004-0.015 0.015 0.003 0.022-0.019-0.010-0.018 0.010 0.003-0.022-0.015-0.015 0.021-0.004 0.009-0.021zM24.626 14.331l0.010 0.021 0.020 0.003-0.015 0.016 0.003 0.022-0.019-0.011-0.018 0.011 0.003-0.022-0.015-0.016 0.021-0.003 0.009-0.021zM24.723 13.871l0.009 0.020 0.021 0.003-0.015 0.016 0.003 0.022-0.018-0.010-0.019 0.010 0.003-0.022-0.015-0.016 0.020-0.003 0.010-0.020zM24.723 14.006l0.009 0.021 0.021 0.003-0.015 0.016 0.003 0.022-0.018-0.011-0.019 0.011 0.003-0.022-0.015-0.016 0.020-0.003 0.010-0.021zM24.723 14.14l0.009 0.021 0.021 0.003-0.015 0.016 0.003 0.022-0.018-0.010-0.019 0.010 0.003-0.022-0.015-0.016 0.020-0.003 0.010-0.021zM24.723 14.275l0.009 0.020 0.021 0.003-0.015 0.016 0.003 0.022-0.018-0.010-0.019 0.010 0.003-0.022-0.015-0.016 0.020-0.003 0.010-0.020zM24.819 13.792l0.010 0.020 0.020 0.003-0.015 0.016 0.004 0.022-0.019-0.010-0.018 0.010 0.004-0.022-0.015-0.016 0.021-0.003 0.009-0.020zM24.819 13.927l0.010 0.020 0.020 0.003-0.015 0.016 0.004 0.022-0.019-0.011-0.018 0.011 0.004-0.022-0.015-0.016 0.021-0.003 0.009-0.020zM24.819 14.062l0.010 0.020 0.020 0.003-0.015 0.016 0.004 0.022-0.019-0.011-0.018 0.011 0.004-0.022-0.015-0.016 0.021-0.003 0.009-0.020zM24.819 14.196l0.010 0.021 0.020 0.004-0.015 0.015 0.004 0.022-0.019-0.010-0.018 0.010 0.004-0.022-0.015-0.015 0.021-0.004 0.009-0.021zM24.819 14.331l0.010 0.021 0.020 0.003-0.015 0.016 0.004 0.022-0.019-0.011-0.018 0.011 0.004-0.022-0.015-0.016 0.021-0.003 0.009-0.021zM24.915 13.871l0.009 0.020 0.021 0.003-0.015 0.016 0.003 0.022-0.018-0.010-0.019 0.010 0.003-0.022-0.015-0.016 0.020-0.003 0.010-0.020zM24.915 14.006l0.009 0.021 0.021 0.003-0.015 0.016 0.003 0.022-0.018-0.011-0.019 0.011 0.003-0.022-0.015-0.016 0.020-0.003 0.010-0.021zM24.915 14.14l0.009 0.021 0.021 0.003-0.015 0.016 0.003 0.022-0.018-0.010-0.019 0.010 0.003-0.022-0.015-0.016 0.020-0.003 0.010-0.021zM24.915 14.275l0.009 0.020 0.021 0.003-0.015 0.016 0.003 0.022-0.018-0.010-0.019 0.010 0.003-0.022-0.015-0.016 0.020-0.003 0.010-0.020zM25.011 13.792l0.009 0.020 0.020 0.003-0.015 0.016 0.004 0.022-0.018-0.010-0.018 0.010 0.003-0.022-0.015-0.016 0.020-0.003 0.010-0.020zM25.011 13.927l0.009 0.020 0.020 0.003-0.015 0.016 0.004 0.022-0.018-0.011-0.018 0.011 0.003-0.022-0.015-0.016 0.020-0.003 0.010-0.020zM25.011 14.062l0.009 0.020 0.020 0.003-0.015 0.016 0.004 0.022-0.018-0.011-0.018 0.011 0.003-0.022-0.015-0.016 0.020-0.003 0.010-0.020zM25.011 14.196l0.009 0.021 0.020 0.004-0.015 0.015 0.004 0.022-0.018-0.010-0.018 0.010 0.003-0.022-0.015-0.015 0.020-0.004 0.010-0.021zM25.011 14.331l0.009 0.021 0.020 0.003-0.015 0.016 0.004 0.022-0.018-0.011-0.018 0.011 0.003-0.022-0.015-0.016 0.020-0.003 0.010-0.021zM25.107 13.871l0.010 0.020 0.021 0.003-0.015 0.016 0.003 0.022-0.019-0.010-0.018 0.010 0.004-0.022-0.015-0.016 0.021-0.003 0.009-0.020zM25.107 14.006l0.010 0.021 0.021 0.003-0.015 0.016 0.003 0.022-0.019-0.011-0.018 0.011 0.004-0.022-0.015-0.016 0.021-0.003 0.009-0.021zM25.107 14.14l0.010 0.021 0.021 0.003-0.015 0.016 0.003 0.022-0.019-0.010-0.018 0.010 0.004-0.022-0.015-0.016 0.021-0.003 0.009-0.021zM25.107 14.275l0.010 0.020 0.021 0.003-0.015 0.016 0.003 0.022-0.019-0.010-0.018 0.010 0.004-0.022-0.015-0.016 0.021-0.003 0.009-0.020zM25.204 13.792l0.009 0.020 0.020 0.003-0.015 0.016 0.003 0.022-0.018-0.010-0.019 0.010 0.003-0.022-0.015-0.016 0.020-0.003 0.010-0.020zM25.204 13.927l0.009 0.020 0.020 0.003-0.015 0.016 0.003 0.022-0.018-0.011-0.019 0.011 0.003-0.022-0.015-0.016 0.020-0.003 0.010-0.020zM25.204 14.062l0.009 0.020 0.020 0.003-0.015 0.016 0.003 0.022-0.018-0.011-0.019 0.011 0.003-0.022-0.015-0.016 0.020-0.003 0.010-0.020zM25.204 14.196l0.009 0.021 0.020 0.004-0.015 0.015 0.003 0.022-0.018-0.010-0.019 0.010 0.003-0.022-0.015-0.015 0.020-0.004 0.010-0.021zM25.204 14.331l0.009 0.021 0.020 0.003-0.015 0.016 0.003 0.022-0.018-0.011-0.019 0.011 0.003-0.022-0.015-0.016 0.020-0.003 0.010-0.021zM25.3 13.871l0.009 0.020 0.021 0.003-0.015 0.016 0.004 0.022-0.019-0.010-0.018 0.010 0.004-0.022-0.015-0.016 0.021-0.003 0.009-0.020zM25.3 14.006l0.009 0.021 0.021 0.003-0.015 0.016 0.004 0.022-0.019-0.011-0.018 0.011 0.004-0.022-0.015-0.016 0.021-0.003 0.009-0.021zM25.3 14.14l0.009 0.021 0.021 0.003-0.015 0.016 0.004 0.022-0.019-0.010-0.018 0.010 0.004-0.022-0.015-0.016 0.021-0.003 0.009-0.021zM25.3 14.275l0.009 0.020 0.021 0.003-0.015 0.016 0.004 0.022-0.019-0.010-0.018 0.010 0.004-0.022-0.015-0.016 0.021-0.003 0.009-0.020zM25.396 13.792l0.010 0.020 0.021 0.003-0.015 0.016 0.003 0.022-0.018-0.010-0.018 0.010 0.003-0.022-0.015-0.016 0.020-0.003 0.009-0.020zM25.396 13.927l0.010 0.020 0.021 0.003-0.015 0.016 0.003 0.022-0.018-0.011-0.018 0.011 0.003-0.022-0.015-0.016 0.020-0.003 0.009-0.020zM25.396 14.062l0.010 0.020 0.021 0.003-0.015 0.016 0.003 0.022-0.018-0.011-0.018 0.011 0.003-0.022-0.015-0.016 0.020-0.003 0.009-0.020zM25.396 14.196l0.010 0.021 0.021 0.004-0.015 0.015 0.003 0.022-0.018-0.010-0.018 0.010 0.003-0.022-0.015-0.015 0.020-0.004 0.009-0.021zM25.396 14.331l0.010 0.021 0.021 0.003-0.015 0.016 0.003 0.022-0.018-0.011-0.018 0.011 0.003-0.022-0.015-0.016 0.020-0.003 0.009-0.021zM25.493 13.871l0.009 0.020 0.020 0.003-0.015 0.016 0.004 0.022-0.018-0.010-0.018 0.010 0.003-0.022-0.015-0.016 0.020-0.003 0.010-0.020zM25.493 14.006l0.009 0.021 0.020 0.003-0.015 0.016 0.004 0.022-0.018-0.011-0.018 0.011 0.003-0.022-0.015-0.016 0.020-0.003 0.010-0.021zM25.493 14.14l0.009 0.021 0.020 0.003-0.015 0.016 0.004 0.022-0.018-0.010-0.018 0.010 0.003-0.022-0.015-0.016 0.020-0.003 0.010-0.021zM25.493 14.275l0.009 0.020 0.020 0.003-0.015 0.016 0.004 0.022-0.018-0.010-0.018 0.010 0.003-0.022-0.015-0.016 0.020-0.003 0.010-0.020zM25.588 13.792l0.010 0.020 0.021 0.003-0.015 0.016 0.003 0.022-0.019-0.010-0.018 0.010 0.004-0.022-0.015-0.016 0.021-0.003 0.009-0.020zM25.588 13.927l0.010 0.020 0.021 0.003-0.015 0.016 0.003 0.022-0.019-0.011-0.018 0.011 0.004-0.022-0.015-0.016 0.021-0.003 0.009-0.020zM25.588 14.062l0.010 0.020 0.021 0.003-0.015 0.016 0.003 0.022-0.019-0.011-0.018 0.011 0.004-0.022-0.015-0.016 0.021-0.003 0.009-0.020zM25.588 14.196l0.010 0.021 0.021 0.004-0.015 0.015 0.003 0.022-0.019-0.010-0.018 0.010 0.004-0.022-0.015-0.015 0.021-0.004 0.009-0.021zM25.588 14.331l0.010 0.021 0.021 0.003-0.015 0.016 0.003 0.022-0.019-0.011-0.018 0.011 0.004-0.022-0.015-0.016 0.021-0.003 0.009-0.021z"></path>
<path fill="#fff" d="M10.426 15.142h-1.122c-0.292-0.893-1.117-1.526-2.090-1.526-0.18 0-0.354 0.022-0.522 0.062l0.015-0.003c-0.975 0.237-1.688 1.103-1.688 2.135 0 0.697 0.325 1.318 0.832 1.72l0.005 0.003c0.37 0.293 0.843 0.471 1.358 0.471 1.212 0 2.194-0.982 2.194-2.194 0-0.003 0-0.005 0-0.008v0-0.049l1.018-0.612z"></path>
<path fill="#263238" d="M6.15 16.534c-0.040 0.069-0.084 0.135-0.134 0.198-0.018-0.026-0.036-0.048-0.055-0.069l0 0c0.132-0.175 0.237-0.38 0.301-0.602l0.003-0.013 0.105 0.031c-0.005 0.013-0.016 0.015-0.030 0.014-0.034 0.102-0.074 0.202-0.12 0.3l0.036 0.010c0 0.008-0.008 0.014-0.025 0.015v0.805h-0.083v-0.688zM7.016 16.565c0.010-0.047 0.023-0.118 0.034-0.186h-0.252v0.739c0 0.091-0.033 0.108-0.21 0.108-0.007-0.033-0.018-0.062-0.032-0.089l0.001 0.002h0.136c0.017 0 0.022-0.005 0.022-0.022v-0.737h-0.204c-0.036 0.091-0.079 0.17-0.13 0.243l0.002-0.003c-0.019-0.019-0.040-0.037-0.063-0.051l-0.001-0.001c0.099-0.147 0.172-0.32 0.207-0.507l0.001-0.008 0.105 0.028c0 0.009-0.011 0.014-0.027 0.013-0.021 0.084-0.043 0.154-0.069 0.221l0.005-0.014h0.604c-0.013 0.094-0.032 0.186-0.057 0.278l-0.072-0.012zM6.611 16.607c-0.004 0.009-0.013 0.014-0.028 0.014-0.040 0.161-0.106 0.302-0.195 0.426l0.003-0.004c-0.020-0.016-0.042-0.030-0.065-0.042l-0.002-0.001c0.086-0.12 0.15-0.262 0.184-0.416l0.001-0.008 0.102 0.031zM7.070 17.033c-0.042-0.166-0.101-0.311-0.178-0.445l0.005 0.009 0.075-0.026c0.075 0.124 0.136 0.268 0.177 0.42l0.003 0.012-0.081 0.031zM7.675 16.312l0.048 0.012-0.008 0.018c-0.010 0.198-0.054 0.384-0.126 0.555l0.004-0.011c0.055 0.040 0.106 0.086 0.15 0.138l-0.052 0.070c-0.040-0.049-0.085-0.092-0.133-0.13l-0.002-0.001c-0.059 0.11-0.144 0.2-0.247 0.263l-0.003 0.002c-0.016-0.026-0.034-0.049-0.053-0.070l0 0c0.102-0.058 0.183-0.142 0.236-0.243l0.002-0.003c-0.046-0.035-0.094-0.067-0.144-0.097l-0.015 0.056-0.072-0.038c0.032-0.111 0.071-0.272 0.108-0.435h-0.128v-0.080h0.144c0.007-0.022 0.026-0.113 0.043-0.203l0.010-0.064 0.104 0.013c0 0.009-0.009 0.014-0.025 0.015-0.028 0.15-0.046 0.23-0.064 0.31l0.014-0.072h0.192l0.019-0.003zM7.447 16.396c-0.027 0.118-0.056 0.236-0.082 0.34 0.053 0.029 0.107 0.064 0.161 0.101 0.057-0.141 0.093-0.289 0.105-0.44h-0.183zM8.412 16.613v0.082h-0.305v0.419c0 0.097-0.038 0.113-0.262 0.11-0.008-0.032-0.019-0.060-0.032-0.087l0.001 0.002h0.152c0.043 0 0.056 0 0.056-0.027v-0.42h-0.31v-0.082h0.31v-0.215h0.042c0.069-0.062 0.131-0.129 0.185-0.203l0.002-0.004h-0.487v-0.080h0.551l0.017-0.005 0.067 0.042c-0.005 0.006-0.012 0.010-0.020 0.012l-0 0c-0.080 0.11-0.169 0.207-0.268 0.291l-0.002 0.002v0.157l0.305 0.005z"></path>
<path fill="#263238" d="M8.304 14.285h-2.173v1.368h2.173v-1.368z"></path>
<path fill="#fff" d="M6.388 14.365l0.053 0.107 0.117 0.017-0.085 0.083 0.020 0.116-0.106-0.055-0.105 0.055 0.020-0.116-0.085-0.083 0.117-0.017 0.052-0.107zM6.729 14.324l0.027 0.055 0.060 0.009-0.043 0.042 0.010 0.060-0.054-0.028-0.054 0.028 0.010-0.060-0.044-0.042 0.061-0.009 0.027-0.055zM6.803 14.602l0.027 0.055 0.061 0.008-0.044 0.043 0.010 0.060-0.054-0.028-0.054 0.028 0.010-0.060-0.044-0.043 0.060-0.008 0.027-0.055zM6.622 14.783l0.027 0.054 0.061 0.009-0.044 0.043 0.010 0.060-0.054-0.029-0.054 0.029 0.010-0.060-0.044-0.043 0.061-0.009 0.027-0.054zM6.372 14.867l0.027 0.054 0.061 0.009-0.043 0.043 0.010 0.060-0.054-0.028-0.054 0.028 0.010-0.060-0.044-0.043 0.061-0.009 0.027-0.054z"></path>
<path fill="none" stroke="#263238" stroke-linejoin="round" stroke-linecap="round" stroke-miterlimit="4" stroke-width="0.3211" d="M19.423 9.951c0-0 0-0 0-0 0-0.733-0.297-1.396-0.778-1.877v0c-0.48-0.48-1.144-0.778-1.877-0.778-0 0-0 0-0 0h-0.924c-0 0-0 0-0 0-1.466 0-2.655 1.188-2.655 2.654 0 0 0 0 0 0v0"></path>
<path fill="none" stroke="#263238" stroke-linejoin="round" stroke-linecap="round" stroke-miterlimit="4" stroke-width="0.6421" d="M19.423 11.917v-1.966M13.189 9.951v1.966"></path>
<path fill="#fff" d="M15.096 14.867s0.166 1.158 0.133 1.455c-0.033 0.298-0.099 0.595-0.926 0.264s-2.315 0.265-3.274 1.422-2.778 5.027-2.778 5.49c0 0.463 0.364 1.088 1.024 1.19s2.216-1.786 2.216-1.786 0.661 3.737 0.661 4.032c0 0.295-0.296 2.249-0.296 2.249h9.359l-0.364-2.414 0.662-5.325s2.745 3.737 3.34 3.904 1.521-0.133 1.753-0.827c0.232-0.694-0.133-1.422-0.596-1.951s-3.373-5.192-3.904-5.622c-0.531-0.429-2.017-0.463-2.547-0.331s-1.422 0.331-1.654 0.198c-0.232-0.132-0.231-1.389 0-1.951 0.002 0.001-2.015 0.531-2.809 0.001z"></path>
<path fill="#fff" d="M22.514 24.355c0.484-0.264 0.898-0.536 1.289-0.837l-0.022 0.016c0.472-0.366 1.073-0.586 1.726-0.586 0.102 0 0.203 0.005 0.303 0.016l-0.012-0.001c0.66 0.071 1.017 0.892 1.034 1.713s-0.428 1.32-1.231 1.445-1.748-0.053-2.337-0.196c-0.259-0.070-0.58-0.132-0.907-0.175l-0.039-0.004s-0.767-1.178 0.197-1.391z"></path>
<path fill="#fff" d="M26.831 24.676c-0.017-0.821-0.374-1.642-1.034-1.713-0.087-0.009-0.188-0.015-0.291-0.015-0.652 0-1.253 0.22-1.732 0.591l0.007-0.005-0.090 0.068c0.768 0.026 2.321 0.34 2.077 2.485 0.696-0.167 1.079-0.65 1.062-1.411zM15.096 14.867s0.166 1.158 0.132 1.455c-0.025 0.223-0.068 0.448-0.437 0.404 0.527 0.862 2.059 2.886 3.488 0.128-0.166 0.010-0.301 0-0.372-0.040-0.231-0.133-0.231-1.389 0-1.951 0 0.003-2.017 0.532-2.811 0.003z"></path>
<path fill="#263238" d="M15.096 14.867s0.043 0.301 0.081 0.635c0.36 0.194 0.784 0.317 1.235 0.338l0.006 0c0.011 0 0.025 0 0.038 0 0.488 0 0.943-0.146 1.321-0.397l-0.009 0.006c0.021-0.199 0.068-0.394 0.138-0.582 0 0-2.017 0.529-2.811 0zM13.278 10.864h-0.182c-0.224 0-0.406 0.182-0.406 0.406v0 1.553c0 0.224 0.182 0.406 0.406 0.406v0h0.182c0.224 0 0.406-0.182 0.406-0.406 0-0 0-0 0-0v0-1.553c0-0 0-0 0-0 0-0.224-0.182-0.406-0.406-0.406v0z"></path>
<path fill="#fff" d="M13.288 10.866h-0.203v2.36h0.203v-2.36z"></path>
<path fill="#263238" d="M19.532 10.864h-0.182c-0.224 0-0.406 0.182-0.406 0.406 0 0 0 0 0 0v0 1.553c0 0 0 0 0 0 0 0.224 0.182 0.406 0.406 0.406h0.182c0.224 0 0.406-0.182 0.406-0.406v0-1.553c0-0.224-0.182-0.406-0.406-0.406v0z"></path>
<path fill="#fff" d="M19.543 10.866h-0.204v2.36h0.204v-2.36zM11.624 12.731c-0.161 0.015-0.297 0.11-0.369 0.245l-0.001 0.002c-0.149 0.247-0.618 1.161-0.568 1.433s2.1 2.198 2.1 2.322-1.63 2.347-2.717 3.335c-1.087 0.988-1.951 2.099-2.1 2.989s0.37 1.63 0.915 1.779 1.21-0.173 1.976-1.137c0.765-0.964 2.866-5.163 3.187-6.592 0 0 0.074-0.64-0.223-1.013s-1.037-1.235-1.037-1.235 0.148-1.704 0.025-1.828-0.247 0.148-0.247 0.148-0.115-0.572-0.272-0.544c-0.172 0.031-0.222 0.247-0.222 0.247s-0.123-0.497-0.445-0.151z"></path>
<path fill="#fff" d="M11.152 18.914c-0.348 0.416-0.702 0.792-1.078 1.146l-0.007 0.006c-1.088 0.988-1.951 2.099-2.1 2.989s0.37 1.63 0.915 1.779 1.21-0.173 1.976-1.137c0.441-0.554 1.323-2.18 2.054-3.733-1.114-0.296-1.573-0.756-1.76-1.050zM13.662 9.639s-0.043 3.439 0.086 4.084c0.129 0.645 1.29 1.741 2.624 1.784s2.386-1.182 2.514-1.827c0.129-0.645 0-3.224-0.021-4.255s-1.505-1.956-3.008-1.72c-1.503 0.236-2.282 1.117-2.196 1.935z"></path>
<path fill="#fff" d="M17.252 13.164s-1.161 0.148-1.677-0.364c0 0 0.128 0.796 0.516 0.925s1.161-0.561 1.161-0.561z"></path>
<path fill="#263238" d="M17.51 8.736s0.557 1.788 1.402 2.25c-0.019-0.613-0.040-1.189-0.048-1.562-0.022-1.032-1.505-1.956-3.008-1.72s-2.278 1.117-2.193 1.935c0 0-0.007 0.561-0.006 1.274 0.726-0.313 2.637-1.185 3.853-2.177z"></path>
<path fill="#263238" d="M17.74 15.18s0 0.779-0.584 2.022c-0.584 1.242-0.609 2.485-0.22 3.41s1.437 1.292 2.56 0.877c1.123-0.414 1.267-2.266 1.145-3.386s-1.216-2.436-1.462-3.094c-0.246-0.658-0.414-0.998-0.414-0.998s-0.634 0.877-1.024 1.071l-0.001 0.098z"></path>
<path fill="#263238" d="M20.746 22.075l-4.155-0.168c-0.004-0-0.009-0-0.013-0-0.179 0-0.325 0.141-0.332 0.318l-0 0.001-0.232 5.737c-0 0.004-0 0.009-0 0.013 0 0.179 0.141 0.325 0.318 0.332l0.001 0 4.155 0.168c0.004 0 0.009 0 0.013 0 0.179 0 0.325-0.141 0.332-0.318l0-0.001 0.232-5.737c0-0.004 0-0.009 0-0.013 0-0.179-0.141-0.325-0.318-0.332l-0.001-0z"></path>
<path fill="#fff" d="M22.863 24.396s-2.127-0.662-2.49-0.773c-0.363-0.111-2.453 1.45-2.536 1.672s0.223 0.223 0.223 0.223-0.128 0.223 0.064 0.334c0.061 0.041 0.125 0.076 0.192 0.104 0 0-0.111 0.251 0.111 0.335s0.53-0.139 0.53-0.139l0.502-0.362s-0.603 0.738-0.474 0.892c0.177 0.211 0.291-0.015 0.291-0.015l0.693-0.821 0.696-0.335s0.558 0.335 1.45 0.362c0.892 0.028 1.088-0.362 1.088-0.362z"></path>
</svg>
